<svg width="20" height="21" viewBox="0 0 20 21" fill="none" xmlns="http://www.w3.org/2000/svg">
<path d="M3.41406 0.996094L0.00390625 1.01367L0.0136719 3.01367L2.08398 3.00391L5.37891 10.9082L4.18164 12.8242C3.78164 13.4642 3.76095 14.2726 4.12695 14.9316C4.49295 15.5906 5.18741 16 5.94141 16H18V14H5.94141L5.87695 13.8828L7.05274 12H14.5215C15.2485 12 15.9175 11.6047 16.2695 10.9707L19.873 4.48633C20.046 4.17633 20.0413 3.79819 19.8613 3.49219C19.6813 3.18719 19.352 3 18.998 3H4.25L3.41406 0.996094ZM5.08203 5H17.2988L14.5215 10H7.16602L5.08203 5ZM6 17C5.46957 17 4.96086 17.2107 4.58579 17.5858C4.21071 17.9609 4 18.4696 4 19C4 19.5304 4.21071 20.0391 4.58579 20.4142C4.96086 20.7893 5.46957 21 6 21C6.53043 21 7.03914 20.7893 7.41421 20.4142C7.78929 20.0391 8 19.5304 8 19C8 18.4696 7.78929 17.9609 7.41421 17.5858C7.03914 17.2107 6.53043 17 6 17ZM16 17C15.4696 17 14.9609 17.2107 14.5858 17.5858C14.2107 17.9609 14 18.4696 14 19C14 19.5304 14.2107 20.0391 14.5858 20.4142C14.9609 20.7893 15.4696 21 16 21C16.5304 21 17.0391 20.7893 17.4142 20.4142C17.7893 20.0391 18 19.5304 18 19C18 18.4696 17.7893 17.9609 17.4142 17.5858C17.0391 17.2107 16.5304 17 16 17Z" fill="#111111"/>
</svg>
